<svg width="30" height="30" viewBox="0 0 30 30" fill="none" xmlns="http://www.w3.org/2000/svg">
<path d="M4.005 22V10H2.005V8H5.005C5.27022 8 5.52457 8.10536 5.71211 8.29289C5.89965 8.48043 6.005 8.73478 6.005 9V21H18.443L20.443 13H8.005V11H21.725C21.877 11 22.027 11.0347 22.1636 11.1013C22.3002 11.168 22.4198 11.265 22.5133 11.3848C22.6069 11.5046 22.6718 11.6442 22.7033 11.7929C22.7348 11.9416 22.7319 12.0956 22.695 12.243L20.195 22.243C20.1408 22.4592 20.016 22.6512 19.8402 22.7883C19.6645 22.9255 19.4479 23 19.225 23H5.004C4.73879 23 4.48443 22.8946 4.2969 22.7071C4.10936 22.5196 4.005 22.2652 4.005 22ZM6.005 29C5.47457 29 4.96586 28.7893 4.59079 28.4142C4.21572 28.0391 4.005 27.5304 4.005 27C4.005 26.4696 4.21572 25.9609 4.59079 25.5858C4.96586 25.2107 5.47457 25 6.005 25C6.53544 25 7.04415 25.2107 7.41922 25.5858C7.79429 25.9609 8.005 26.4696 8.005 27C8.005 27.5304 7.79429 28.0391 7.41922 28.4142C7.04415 28.7893 6.53544 29 6.005 29ZM18.005 29C17.4746 29 16.9659 28.7893 16.5908 28.4142C16.2157 28.0391 16.005 27.5304 16.005 27C16.005 26.4696 16.2157 25.9609 16.5908 25.5858C16.9659 25.2107 17.4746 25 18.005 25C18.5354 25 19.0441 25.2107 19.4192 25.5858C19.7943 25.9609 20.005 26.4696 20.005 27C20.005 27.5304 19.7943 28.0391 19.4192 28.4142C19.0441 28.7893 18.5354 29 18.005 29Z" fill="#828282"/>
<rect x="12" width="18" height="18" rx="9" fill="#DA6034"/>
<path d="M22.345 13.5H20.629V9.166C20.629 9.01933 20.629 8.86167 20.629 8.693C20.629 8.52433 20.6327 8.35567 20.64 8.187C20.6473 8.011 20.651 7.84967 20.651 7.703C20.5997 7.77633 20.5373 7.857 20.464 7.945C20.3907 8.033 20.3063 8.121 20.211 8.209L19.474 8.935L18.495 7.912L20.827 5.646H22.345V13.5Z" fill="white"/>
</svg>
