<svg width="32" height="32" viewBox="0 0 32 32" fill="none" xmlns="http://www.w3.org/2000/svg">
<path d="M16 2.66666C23.36 2.66666 29.3334 8.63999 29.3334 16C29.3334 23.36 23.36 29.3333 16 29.3333C8.64002 29.3333 2.66669 23.36 2.66669 16C2.66669 8.63999 8.64002 2.66666 16 2.66666ZM8.03069 20.5547C9.98802 23.4747 12.9267 25.3333 16.2134 25.3333C19.4987 25.3333 22.4387 23.476 24.3947 20.5547C22.1757 18.4808 19.2506 17.3291 16.2134 17.3333C13.1756 17.3287 10.25 18.4805 8.03069 20.5547ZM16 14.6667C17.0609 14.6667 18.0783 14.2452 18.8284 13.4951C19.5786 12.7449 20 11.7275 20 10.6667C20 9.60579 19.5786 8.58838 18.8284 7.83823C18.0783 7.08808 17.0609 6.66666 16 6.66666C14.9392 6.66666 13.9217 7.08808 13.1716 7.83823C12.4214 8.58838 12 9.60579 12 10.6667C12 11.7275 12.4214 12.7449 13.1716 13.4951C13.9217 14.2452 14.9392 14.6667 16 14.6667Z" fill="#828282"/>
</svg>
