<svg width="24" height="24" viewBox="0 0 24 24" fill="none" xmlns="http://www.w3.org/2000/svg">
<path d="M6.005 9H19.943L20.443 7H8.005V5H21.725C21.877 5 22.027 5.03466 22.1636 5.10134C22.3002 5.16801 22.4198 5.26495 22.5133 5.38479C22.6068 5.50462 22.6718 5.6442 22.7033 5.79291C22.7348 5.94162 22.7319 6.09555 22.695 6.243L20.195 16.243C20.1408 16.4592 20.016 16.6512 19.8402 16.7883C19.6645 16.9255 19.4479 17 19.225 17H5.004C4.73878 17 4.48443 16.8946 4.29689 16.7071C4.10935 16.5196 4.004 16.2652 4.004 16V4H2.004V2H5.004C5.26921 2 5.52357 2.10536 5.7111 2.29289C5.89864 2.48043 6.004 2.73478 6.004 3V9H6.005ZM6.005 23C5.47457 23 4.96586 22.7893 4.59078 22.4142C4.21571 22.0391 4.005 21.5304 4.005 21C4.005 20.4696 4.21571 19.9609 4.59078 19.5858C4.96586 19.2107 5.47457 19 6.005 19C6.53543 19 7.04414 19.2107 7.41921 19.5858C7.79428 19.9609 8.005 20.4696 8.005 21C8.005 21.5304 7.79428 22.0391 7.41921 22.4142C7.04414 22.7893 6.53543 23 6.005 23ZM18.005 23C17.4746 23 16.9659 22.7893 16.5908 22.4142C16.2157 22.0391 16.005 21.5304 16.005 21C16.005 20.4696 16.2157 19.9609 16.5908 19.5858C16.9659 19.2107 17.4746 19 18.005 19C18.5354 19 19.0441 19.2107 19.4192 19.5858C19.7943 19.9609 20.005 20.4696 20.005 21C20.005 21.5304 19.7943 22.0391 19.4192 22.4142C19.0441 22.7893 18.5354 23 18.005 23Z" fill="white"/>
</svg>
